<?xml version="1.0" encoding="utf-8"?>
<!-- Generator: Adobe Illustrator 19.1.0, SVG Export Plug-In . SVG Version: 6.00 Build 0)  -->
<svg version="1.1" id="Layer_1" xmlns="http://www.w3.org/2000/svg" xmlns:xlink="http://www.w3.org/1999/xlink" x="0px" y="0px"
	 viewBox="-205 297 200 200" style="enable-background:new -205 297 200 200;" xml:space="preserve">
<style type="text/css">
	.st0{fill:#7818AC;}
	.st1{fill:#FFFFFF;}
	.st2{enable-background:new    ;}
	.st3{fill:#FF6563;}
</style>
<path class="st0" d="M-10.1,397.1c-0.1,52.4-42.6,94.8-95,94.8c-52.4-0.1-94.8-42.6-94.8-95c0.1-52.4,42.6-94.9,95-94.8
	S-10,344.7-10.1,397.1"/>
<path class="st1" d="M-29.2,397.1c-0.1,41.8-34,75.7-75.9,75.7c-41.8-0.1-75.7-34-75.7-75.9c0.1-41.8,34-75.7,75.9-75.7
	C-63.1,321.3-29.2,355.3-29.2,397.1"/>
<g class="st2">
	<path class="st3" d="M-162.2,395.2c0-8.4,6.5-15.3,15.5-15.3c6.5,0,11.8,3.7,13.7,8.9h-5.6c-1.8-3-4.4-4.3-8.2-4.3
		c-5.9,0-9.8,4.6-9.9,10.7c-0.1,6.1,4.2,10.6,10.1,10.6c5.5,0,8.7-3.1,9.6-8h-9.6c0-3.1,1.5-4.1,4.6-4.1l9.9,0
		c1,10.4-6,16.9-14.5,16.9C-155.7,410.5-162.2,403.6-162.2,395.2z"/>
</g>
<g class="st2">
	<path class="st3" d="M-129.3,380.5c2,0,3.6,0.7,4.4,2c0.6,1,0.6,2.1,0.6,3.4v24h-5V380.5z"/>
	<path class="st3" d="M-105,406.5l-6.9-8.8l-1.7,0v12.2h-5v-29.4l10.7,0c6.4,0,9.4,4.1,9.4,8.6c0,4-2.4,7.8-7.5,8.5l5.7,6.8
		c1.7,2.1,4.2,4.6,6,5.3c-1,0.4-2.9,0.6-4,0.6C-100.9,410.3-103.1,409-105,406.5z M-108.7,393.5c3.5,0,4.8-1.9,4.8-4.4
		c0-2.5-1.3-4.4-4.8-4.4h-4.9v8.8H-108.7z"/>
	<path class="st3" d="M-85.9,380.5c2.6-0.2,4.8,0.3,6,3.2l10.7,26.2h-5.5l-2.5-6.4h-12.2l-2.3,6.4h-5L-85.9,380.5z M-78.7,399.3
		l-2.9-7.6c-0.7-1.9-1.2-3.3-1.8-5.3h-0.1c-0.5,1.9-1,3.5-1.7,5.3l-2.7,7.5H-78.7z"/>
</g>
<g class="st2">
	<path class="st3" d="M-56.1,406.5l-6.9-8.8l-1.7,0v12.2h-5v-29.4l10.7,0c6.4,0,9.4,4.1,9.4,8.6c0,4-2.4,7.8-7.5,8.5l5.7,6.8
		c1.7,2.1,4.2,4.6,6,5.3c-1,0.4-2.9,0.6-4,0.6C-52,410.3-54.1,409-56.1,406.5z M-59.7,393.5c3.5,0,4.8-1.9,4.8-4.4s-1.3-4.4-4.8-4.4
		h-4.9v8.8H-59.7z"/>
</g>
</svg>
