<?xml version="1.0" encoding="utf-8"?>
<!-- Generator: Adobe Illustrator 19.1.0, SVG Export Plug-In . SVG Version: 6.00 Build 0)  -->
<svg version="1.1" id="Layer_1" xmlns="http://www.w3.org/2000/svg" xmlns:xlink="http://www.w3.org/1999/xlink" x="0px" y="0px"
	 viewBox="0 0 192.7 101.6" style="enable-background:new 0 0 192.7 101.6;" xml:space="preserve">
<style type="text/css">
	.st0{clip-path:url(#SVGID_2_);}
	.st1{clip-path:url(#SVGID_4_);fill:#BE97E5;}
	.st2{clip-path:url(#SVGID_4_);fill:#FFFFFF;}
	.st3{opacity:0.7;clip-path:url(#SVGID_4_);}
	.st4{clip-path:url(#SVGID_6_);fill:#BE97E5;}
	.st5{fill:#BE97E5;}
</style>
<g>
	<defs>
		<rect id="SVGID_1_" width="192.7" height="101.6"/>
	</defs>
	<clipPath id="SVGID_2_">
		<use xlink:href="#SVGID_1_"  style="overflow:visible;"/>
	</clipPath>
	<g class="st0">
		<defs>
			<rect id="SVGID_3_" y="0" width="192.7" height="101.6"/>
		</defs>
		<clipPath id="SVGID_4_">
			<use xlink:href="#SVGID_3_"  style="overflow:visible;"/>
		</clipPath>
		<path class="st1" d="M120.1,2.8c4.8,3.4,8,17.1,8,17.1l-31.7,1.6l-31.7-1.6c0,0,3.2-13.7,8-17.1C77.3-0.6,96.3,0,96.3,0
			S115.3-0.6,120.1,2.8"/>
		<path class="st1" d="M120.1,2.8c4.8,3.4,8,17.1,8,17.1l-31.7,1.6l-31.7-1.6c0,0,3.2-13.7,8-17.1C77.3-0.6,96.3,0,96.3,0
			S115.3-0.6,120.1,2.8"/>
		<path class="st1" d="M120.1,98.8c4.8-3.4,8-17.1,8-17.1l-31.7-1.6l-31.7,1.6c0,0,3.2,13.7,8,17.1c4.8,3.4,23.8,2.8,23.8,2.8
			S115.3,102.1,120.1,98.8"/>
		<path class="st1" d="M120.1,98.8c4.8-3.4,8-17.1,8-17.1l-31.7-1.6l-31.7,1.6c0,0,3.2,13.7,8,17.1c4.8,3.4,23.8,2.8,23.8,2.8
			S115.3,102.1,120.1,98.8"/>
		<path class="st2" d="M167.7,87.9c17.6-5.4,22.6-26.4,22.6-37.3c0-10.9-4.9-31.9-22.6-37.3c-17.6-5.4-53,5.5-71.4,5.5
			C77.9,18.8,42.6,8,25,13.4C7.3,18.7,2.4,39.8,2.4,50.6c0,10.9,4.9,31.9,22.6,37.3c17.6,5.4,53-5.5,71.4-5.5
			C114.7,82.4,150.1,93.3,167.7,87.9"/>
		<path class="st1" d="M0,50.6c0-11.1,5.1-33.7,24.3-39.6c11.5-3.5,29.2-0.6,46.3,2.2c9.8,1.6,19.1,3.1,25.8,3.1
			c6.7,0,16-1.5,25.8-3.1c17.1-2.8,34.8-5.7,46.3-2.2c19.2,5.8,24.3,28.4,24.3,39.6s-5.1,33.7-24.3,39.6
			c-11.5,3.5-29.2,0.6-46.3-2.2c-9.8-1.6-19.1-3.1-25.8-3.1c-6.7,0-16,1.5-25.8,3.1c-17.1,2.8-34.8,5.7-46.3,2.2
			C5.1,84.4,0,61.8,0,50.6 M187.9,50.6c0-9.9-4.4-30-20.9-35c-10.4-3.2-28.3-0.2-44.1,2.4c-10,1.6-19.4,3.2-26.6,3.2
			c-7.1,0-16.6-1.6-26.6-3.2c-15.8-2.6-33.7-5.5-44.1-2.4c-16.5,5-20.9,25.1-20.9,35c0,9.9,4.4,30,20.9,35
			c10.4,3.2,28.3,0.2,44.1-2.4c10-1.6,19.4-3.2,26.6-3.2c7.1,0,16.6,1.6,26.6,3.2c15.8,2.6,33.7,5.5,44.1,2.4
			C183.5,80.6,187.9,60.5,187.9,50.6"/>
		<path class="st1" d="M0,50.6c0-11.1,5.1-33.7,24.3-39.6c11.5-3.5,29.2-0.6,46.3,2.2c9.8,1.6,19.1,3.1,25.8,3.1
			c6.7,0,16-1.5,25.8-3.1c17.1-2.8,34.8-5.7,46.3-2.2c19.2,5.8,24.3,28.4,24.3,39.6s-5.1,33.7-24.3,39.6
			c-11.5,3.5-29.2,0.6-46.3-2.2c-9.8-1.6-19.1-3.1-25.8-3.1c-6.7,0-16,1.5-25.8,3.1c-17.1,2.8-34.8,5.7-46.3,2.2
			C5.1,84.4,0,61.8,0,50.6 M187.9,50.6c0-9.9-4.4-30-20.9-35c-10.4-3.2-28.3-0.2-44.1,2.4c-10,1.6-19.4,3.2-26.6,3.2
			c-7.1,0-16.6-1.6-26.6-3.2c-15.8-2.6-33.7-5.5-44.1-2.4c-16.5,5-20.9,25.1-20.9,35c0,9.9,4.4,30,20.9,35
			c10.4,3.2,28.3,0.2,44.1-2.4c10-1.6,19.4-3.2,26.6-3.2c7.1,0,16.6,1.6,26.6,3.2c15.8,2.6,33.7,5.5,44.1,2.4
			C183.5,80.6,187.9,60.5,187.9,50.6"/>
		<g class="st3">
			<g>
				<defs>
					<rect id="SVGID_5_" y="9.5" width="192.7" height="82.3"/>
				</defs>
				<clipPath id="SVGID_6_">
					<use xlink:href="#SVGID_5_"  style="overflow:visible;"/>
				</clipPath>
				<path class="st4" d="M0,50.6c0-11.1,5.1-33.7,24.3-39.6c11.5-3.5,29.2-0.6,46.3,2.2c9.8,1.6,19.1,3.1,25.8,3.1
					c6.7,0,16-1.5,25.8-3.1c17.1-2.8,34.8-5.7,46.3-2.2c19.2,5.8,24.3,28.4,24.3,39.6s-5.1,33.7-24.3,39.6
					c-11.5,3.5-29.2,0.6-46.3-2.2c-9.8-1.6-19.1-3.1-25.8-3.1c-6.7,0-16,1.5-25.8,3.1c-17.1,2.8-34.8,5.7-46.3,2.2
					C5.1,84.4,0,61.8,0,50.6 M187.9,50.6c0-9.9-4.4-30-20.9-35c-10.4-3.2-28.3-0.2-44.1,2.4c-10,1.6-19.4,3.2-26.6,3.2
					c-7.1,0-16.6-1.6-26.6-3.2c-15.8-2.6-33.7-5.5-44.1-2.4c-16.5,5-20.9,25.1-20.9,35c0,9.9,4.4,30,20.9,35
					c10.4,3.2,28.3,0.2,44.1-2.4c10-1.6,19.4-3.2,26.6-3.2c7.1,0,16.6,1.6,26.6,3.2c15.8,2.6,33.7,5.5,44.1,2.4
					C183.5,80.6,187.9,60.5,187.9,50.6"/>
			</g>
		</g>
		<path class="st1" d="M145.8,80c-8.6,0-18.7-1.4-28-2.7c-8.3-1.2-16.2-2.3-22-2.3c-5.8,0-13.6,1.1-22,2.3
			c-13.7,1.9-29.2,4.1-38.8,1.6c-15.9-4.1-20.1-20.3-20.1-28.2S19.1,26.6,35,22.4c9.6-2.5,25.1-0.3,38.8,1.6
			c8.3,1.2,16.2,2.3,22,2.3c5.8,0,13.6-1.1,22-2.3c13.7-1.9,29.2-4.1,38.8-1.6c15.9,4.1,20.1,20.3,20.1,28.2s-4.2,24.1-20.1,28.2
			C153.5,79.6,149.8,80,145.8,80 M45.8,23.8c-3.8,0-7.2,0.3-10.1,1c-14.3,3.7-18.1,18.5-18.1,25.8s3.8,22.1,18.1,25.8
			c9,2.4,24.3,0.2,37.7-1.7c8.4-1.2,16.4-2.3,22.3-2.3c6,0,13.9,1.1,22.3,2.3c13.4,1.9,28.7,4,37.7,1.7
			c14.3-3.7,18.1-18.5,18.1-25.8s-3.8-22.1-18.1-25.8c-9-2.4-24.3-0.2-37.7,1.7c-8.4,1.2-16.4,2.3-22.3,2.3c-6,0-13.9-1.1-22.3-2.3
			C64.2,25.2,54.1,23.8,45.8,23.8"/>
	</g>
</g>
<g>
	<path class="st5" d="M37.5,55.9h4.3c0,2.1,1,3.8,3,3.8c1.7,0,2.8-1,2.8-3.2V42.1c0-1.2,0-2.1,0.5-3c0.7-1.1,2.1-1.8,3.9-1.7v19.1
		c0,4.6-3.2,6.9-7,6.9C41,63.3,37.8,61,37.5,55.9z"/>
	<path class="st5" d="M56.8,53.9l0-16.5c1.8,0,3.2,0.6,3.9,1.7c0.6,0.9,0.6,1.8,0.6,3v11.5c0,3.5,2.4,6,5.9,6c3.6,0,5.9-2.5,5.9-6
		V42.1c0-1.2,0-2.1,0.6-3c0.7-1.1,2-1.8,3.8-1.7l0,16.5c0,5.7-4.6,9.7-10.2,9.7C61.5,63.5,56.8,59.6,56.8,53.9z"/>
	<path class="st5" d="M81.2,50.2c0-7.3,5.7-13.4,13.5-13.4c5.7,0,10.3,3.2,11.9,7.8h-4.9c-1.5-2.6-3.8-3.7-7.2-3.7
		c-5.2,0-8.6,4-8.6,9.4c-0.1,5.3,3.7,9.2,8.8,9.2c4.8,0,7.6-2.7,8.3-7h-8.3c0-2.7,1.3-3.6,4-3.6l8.6,0c0.9,9.1-5.2,14.7-12.6,14.7
		C86.8,63.5,81.2,57.5,81.2,50.2z"/>
	<path class="st5" d="M117.3,37.4c2.3-0.2,4.2,0.2,5.2,2.8l9.3,22.8h-4.8l-2.1-5.6h-10.6l-2,5.6H108L117.3,37.4z M123.6,53.7
		l-2.5-6.6c-0.6-1.6-1-2.9-1.5-4.6h-0.1c-0.5,1.7-0.9,3.1-1.5,4.6l-2.3,6.6H123.6z"/>
	<path class="st5" d="M146.2,60.1l-6-7.7l-1.5,0V63h-4.4V37.4l9.3,0c5.6,0,8.2,3.6,8.2,7.5c0,3.5-2.1,6.8-6.5,7.4l4.9,6
		c1.5,1.8,3.7,4,5.2,4.6c-0.9,0.4-2.6,0.5-3.5,0.5C149.8,63.3,147.9,62.2,146.2,60.1z M143,48.7c3,0,4.2-1.6,4.2-3.8
		c0-2.2-1.1-3.8-4.2-3.8h-4.3v7.6H143z"/>
</g>
</svg>
