<svg xmlns="http://www.w3.org/2000/svg" xmlns:xlink="http://www.w3.org/1999/xlink" xml:space="preserve" viewBox="0 0 192.7 101.6"><style>.st1{clip-path:url(#SVGID_4_)}.st1,.st5{fill:#be97e5}</style><defs><path id="SVGID_1_" d="M0 0h192.7v101.6H0z"/></defs><clipPath id="SVGID_2_"><use xlink:href="#SVGID_1_" overflow="visible"/></clipPath><g clip-path="url(#SVGID_2_)"><defs><path id="SVGID_3_" d="M0 0h192.7v101.6H0z"/></defs><clipPath id="SVGID_4_"><use xlink:href="#SVGID_3_" overflow="visible"/></clipPath><path d="M120.1 2.8c4.8 3.4 8 17.1 8 17.1l-31.7 1.6-31.7-1.6s3.2-13.7 8-17.1C77.3-.6 96.3 0 96.3 0s19-.6 23.8 2.8" class="st1"/><path d="M120.1 2.8c4.8 3.4 8 17.1 8 17.1l-31.7 1.6-31.7-1.6s3.2-13.7 8-17.1C77.3-.6 96.3 0 96.3 0s19-.6 23.8 2.8M120.1 98.8c4.8-3.4 8-17.1 8-17.1l-31.7-1.6-31.7 1.6s3.2 13.7 8 17.1c4.8 3.4 23.8 2.8 23.8 2.8s18.8.5 23.6-2.8" class="st1"/><path d="M120.1 98.8c4.8-3.4 8-17.1 8-17.1l-31.7-1.6-31.7 1.6s3.2 13.7 8 17.1c4.8 3.4 23.8 2.8 23.8 2.8s18.8.5 23.6-2.8" class="st1"/><path fill="#fff" d="M167.7 87.9c17.6-5.4 22.6-26.4 22.6-37.3 0-10.9-4.9-31.9-22.6-37.3-17.6-5.4-53 5.5-71.4 5.5C77.9 18.8 42.6 8 25 13.4 7.3 18.7 2.4 39.8 2.4 50.6c0 10.9 4.9 31.9 22.6 37.3 17.6 5.4 53-5.5 71.4-5.5 18.3 0 53.7 10.9 71.3 5.5" clip-path="url(#SVGID_4_)"/><path d="M0 50.6C0 39.5 5.1 16.9 24.3 11c11.5-3.5 29.2-.6 46.3 2.2 9.8 1.6 19.1 3.1 25.8 3.1 6.7 0 16-1.5 25.8-3.1 17.1-2.8 34.8-5.7 46.3-2.2 19.2 5.8 24.3 28.4 24.3 39.6s-5.1 33.7-24.3 39.6c-11.5 3.5-29.2.6-46.3-2.2-9.8-1.6-19.1-3.1-25.8-3.1-6.7 0-16 1.5-25.8 3.1-17.1 2.8-34.8 5.7-46.3 2.2C5.1 84.4 0 61.8 0 50.6m187.9 0c0-9.9-4.4-30-20.9-35-10.4-3.2-28.3-.2-44.1 2.4-10 1.6-19.4 3.2-26.6 3.2-7.1 0-16.6-1.6-26.6-3.2-15.8-2.6-33.7-5.5-44.1-2.4-16.5 5-20.9 25.1-20.9 35 0 9.9 4.4 30 20.9 35 10.4 3.2 28.3.2 44.1-2.4 10-1.6 19.4-3.2 26.6-3.2 7.1 0 16.6 1.6 26.6 3.2 15.8 2.6 33.7 5.5 44.1 2.4 16.5-5 20.9-25.1 20.9-35" class="st1"/><path d="M0 50.6C0 39.5 5.1 16.9 24.3 11c11.5-3.5 29.2-.6 46.3 2.2 9.8 1.6 19.1 3.1 25.8 3.1 6.7 0 16-1.5 25.8-3.1 17.1-2.8 34.8-5.7 46.3-2.2 19.2 5.8 24.3 28.4 24.3 39.6s-5.1 33.7-24.3 39.6c-11.5 3.5-29.2.6-46.3-2.2-9.8-1.6-19.1-3.1-25.8-3.1-6.7 0-16 1.5-25.8 3.1-17.1 2.8-34.8 5.7-46.3 2.2C5.1 84.4 0 61.8 0 50.6m187.9 0c0-9.9-4.4-30-20.9-35-10.4-3.2-28.3-.2-44.1 2.4-10 1.6-19.4 3.2-26.6 3.2-7.1 0-16.6-1.6-26.6-3.2-15.8-2.6-33.7-5.5-44.1-2.4-16.5 5-20.9 25.1-20.9 35 0 9.9 4.4 30 20.9 35 10.4 3.2 28.3.2 44.1-2.4 10-1.6 19.4-3.2 26.6-3.2 7.1 0 16.6 1.6 26.6 3.2 15.8 2.6 33.7 5.5 44.1 2.4 16.5-5 20.9-25.1 20.9-35" class="st1"/><g clip-path="url(#SVGID_4_)" opacity=".7"><defs><path id="SVGID_5_" d="M0 9.5h192.7v82.3H0z"/></defs><clipPath id="SVGID_6_"><use xlink:href="#SVGID_5_" overflow="visible"/></clipPath><path fill="#be97e5" d="M0 50.6C0 39.5 5.1 16.9 24.3 11c11.5-3.5 29.2-.6 46.3 2.2 9.8 1.6 19.1 3.1 25.8 3.1 6.7 0 16-1.5 25.8-3.1 17.1-2.8 34.8-5.7 46.3-2.2 19.2 5.8 24.3 28.4 24.3 39.6s-5.1 33.7-24.3 39.6c-11.5 3.5-29.2.6-46.3-2.2-9.8-1.6-19.1-3.1-25.8-3.1-6.7 0-16 1.5-25.8 3.1-17.1 2.8-34.8 5.7-46.3 2.2C5.1 84.4 0 61.8 0 50.6m187.9 0c0-9.9-4.4-30-20.9-35-10.4-3.2-28.3-.2-44.1 2.4-10 1.6-19.4 3.2-26.6 3.2-7.1 0-16.6-1.6-26.6-3.2-15.8-2.6-33.7-5.5-44.1-2.4-16.5 5-20.9 25.1-20.9 35 0 9.9 4.4 30 20.9 35 10.4 3.2 28.3.2 44.1-2.4 10-1.6 19.4-3.2 26.6-3.2 7.1 0 16.6 1.6 26.6 3.2 15.8 2.6 33.7 5.5 44.1 2.4 16.5-5 20.9-25.1 20.9-35" clip-path="url(#SVGID_6_)"/></g><path d="M145.8 80c-8.6 0-18.7-1.4-28-2.7-8.3-1.2-16.2-2.3-22-2.3-5.8 0-13.6 1.1-22 2.3-13.7 1.9-29.2 4.1-38.8 1.6-15.9-4.1-20.1-20.3-20.1-28.2S19.1 26.6 35 22.4c9.6-2.5 25.1-.3 38.8 1.6 8.3 1.2 16.2 2.3 22 2.3 5.8 0 13.6-1.1 22-2.3 13.7-1.9 29.2-4.1 38.8-1.6 15.9 4.1 20.1 20.3 20.1 28.2s-4.2 24.1-20.1 28.2c-3.1.8-6.8 1.2-10.8 1.2m-100-56.2c-3.8 0-7.2.3-10.1 1-14.3 3.7-18.1 18.5-18.1 25.8s3.8 22.1 18.1 25.8c9 2.4 24.3.2 37.7-1.7 8.4-1.2 16.4-2.3 22.3-2.3 6 0 13.9 1.1 22.3 2.3 13.4 1.9 28.7 4 37.7 1.7 14.3-3.7 18.1-18.5 18.1-25.8s-3.8-22.1-18.1-25.8c-9-2.4-24.3-.2-37.7 1.7-8.4 1.2-16.4 2.3-22.3 2.3-6 0-13.9-1.1-22.3-2.3-9.2-1.3-19.3-2.7-27.6-2.7" class="st1"/></g><path d="M37.5 55.9h4.3c0 2.1 1 3.8 3 3.8 1.7 0 2.8-1 2.8-3.2V42.1c0-1.2 0-2.1.5-3 .7-1.1 2.1-1.8 3.9-1.7v19.1c0 4.6-3.2 6.9-7 6.9-4-.1-7.2-2.4-7.5-7.5zM56.8 53.9V37.4c1.8 0 3.2.6 3.9 1.7.6.9.6 1.8.6 3v11.5c0 3.5 2.4 6 5.9 6 3.6 0 5.9-2.5 5.9-6V42.1c0-1.2 0-2.1.6-3 .7-1.1 2-1.8 3.8-1.7v16.5c0 5.7-4.6 9.7-10.2 9.7-5.8-.1-10.5-4-10.5-9.7zM81.2 50.2c0-7.3 5.7-13.4 13.5-13.4 5.7 0 10.3 3.2 11.9 7.8h-4.9c-1.5-2.6-3.8-3.7-7.2-3.7-5.2 0-8.6 4-8.6 9.4-.1 5.3 3.7 9.2 8.8 9.2 4.8 0 7.6-2.7 8.3-7h-8.3c0-2.7 1.3-3.6 4-3.6h8.6c.9 9.1-5.2 14.7-12.6 14.7-7.9-.1-13.5-6.1-13.5-13.4zM117.3 37.4c2.3-.2 4.2.2 5.2 2.8l9.3 22.8H127l-2.1-5.6h-10.6l-2 5.6H108l9.3-25.6zm6.3 16.3-2.5-6.6c-.6-1.6-1-2.9-1.5-4.6h-.1c-.5 1.7-.9 3.1-1.5 4.6l-2.3 6.6h7.9zM146.2 60.1l-6-7.7h-1.5V63h-4.4V37.4h9.3c5.6 0 8.2 3.6 8.2 7.5 0 3.5-2.1 6.8-6.5 7.4l4.9 6c1.5 1.8 3.7 4 5.2 4.6-.9.4-2.6.5-3.5.5-2.1-.1-4-1.2-5.7-3.3zM143 48.7c3 0 4.2-1.6 4.2-3.8 0-2.2-1.1-3.8-4.2-3.8h-4.3v7.6h4.3z" class="st5"/></svg>