<?xml version="1.0" encoding="utf-8"?>
<!-- Generator: Adobe Illustrator 19.1.0, SVG Export Plug-In . SVG Version: 6.00 Build 0)  -->
<svg version="1.1" id="Layer_1" xmlns="http://www.w3.org/2000/svg" xmlns:xlink="http://www.w3.org/1999/xlink" x="0px" y="0px"
	 viewBox="-249 343.5 113 106.5" style="enable-background:new -249 343.5 113 106.5;" xml:space="preserve">
<style type="text/css">
	.st0{fill:#FFFFFF;}
</style>
<g>
	<g>
		<path class="st0" d="M-196.3,407.6c-0.5,0-1.1-0.1-1.6-0.4l-25.3-13.9c-1.6-0.9-2.1-2.8-1.3-4.4c0.9-1.6,2.8-2.1,4.4-1.3
			l23.3,12.8l27-24.9c1.3-1.2,3.4-1.1,4.6,0.2c1.2,1.3,1.1,3.4-0.2,4.6l-28.6,26.4C-194.7,407.3-195.5,407.6-196.3,407.6"/>
		<g>
			<g>
				<g>
					<g>
						<g>
							<g>
								<polygon class="st0" points="-162.9,385.9 -149.9,408.3 -137,385.9 								"/>
							</g>
						</g>
					</g>
				</g>
			</g>
		</g>
	</g>
	<g>
		<path class="st0" d="M-197.2,446.8c-28,0-50.8-22.5-50.8-50.1s22.8-50.1,50.8-50.1s50.8,22.5,50.8,50.1h-5
			c0-24.9-20.6-45.1-45.8-45.1s-45.8,20.2-45.8,45.1s20.6,45.1,45.8,45.1V446.8z"/>
	</g>
</g>
</svg>
